<svg height="16" viewBox="0 0 24 16" width="24" xmlns="http://www.w3.org/2000/svg">
<path d="m10.0492532 15.4208574 6.2567545-8.47592193c.2071328-.28059936.5902677-.36401722.8953081-.19493053.2745541.15218781.4092042.46638928.339987.76420065l-.0307108.09841869-3.8700654 9.79899812c-.4199958 1.0634286-1.6225489 1.5850339-2.6859775 1.1650381-.0834709-.0329665-.1647098-.0713257-.2432026-.114835-1.00026598-.5544564-1.36166597-1.814808-.8072095-2.8150739l.06889313-.1153015.07622307-.1105927 6.2567545-8.47592193zm8.5602642-8.00688707c.7545506.6113115 1.4374544 1.33686251 2.0222101 2.17198013.5245021.74906664 1.0295303 1.65607494 1.3199752 2.39834074.1509361.3857347-.0394058.8207922-.4251404.9717282s-.8207921-.0394058-.9717282-.4251404c-.097292-.2486411-.2271233-.5262196-.3772793-.8118111l-2.0495034 1.1832785c-.3587194.2071067-.8174122.0842004-1.024519-.2745191-.1898479-.3288262-.1023931-.7416577.1898065-.9677044l.0847125-.0568146 2.018253-1.1668775-.2304265-.3137104c-.3238831-.42255698-.6782114-.80942587-1.0577217-1.15967863l.3801615-.96427783c.0378878-.09593172.0667141-.19341879.0868381-.29145958l.0237041-.14735127zm-2.628569-1.5612551c-.1490498.08656027-.2864174.19664685-.4065725.32862699l-.1142126.13921751-.5409603.73293662c-.7017631-.24393693-1.4305266-.40176915-2.1689614-.47044104l-.0002416 2.67284392c0 .41421357-.3357864.74999997-.75.74999997-.3796958 0-.693491-.28215385-.7431534-.64822941l-.0068466-.10177056-.0003865-2.68927846c-1.59667266.11353366-3.18409762.64763862-4.59071818 1.63256495-.8159495.57133399-1.52736714 1.32224301-2.11873548 2.20470218l2.08221493 1.2020838c.35871947.2071068.48162583.6657996.27451905 1.0245191-.18984788.3288262-.59109791.4595038-.93295985.319475l-.0915592-.0449559-2.07419223-1.1969872c-.12776914.2662197-.24640989.5402843-.35562401.8212708-.15006042.3860761-.58468493.5774046-.97076102.4273442s-.57740459-.5846849-.42734416-.970761c.80644968-2.07483716 2.07928719-3.84271838 3.75407732-5.01541905 3.09190023-2.16497185 6.93435203-2.45850305 10.18241773-1.11774242z" 
fill="#444"/></svg>